# xmcd
#
# Track frame offsets:
#	150
#	11742
#	28510
#	41962
#	79260
#	93130
#	111037
#	120987
#	141297
#	152385
#
# Disc length: 2172
#
# Revision: 2
# Processed by: cddbd v1.5.1PL0 Copyright (c) Steve Scherf et al.
# Submitted via: audiograbber 1.82.01
# Normalized: r1:DSETVAR1
#
DISCID=72087a0a
DTITLE=Various Artist - Blues
DYEAR=1996
DGENRE=Blues
TTITLE0=Louis Amstrong - Hello Dolly
TTITLE1=Memphis Slim - Just Lauded In Your Town
TTITLE2=Invalables - No Need To Cry
TTITLE3=Cannonball Adderly - No Greater Love
TTITLE4=Little Milton - I am Gonna Move to the Outkirts of Town
TTITLE5=Steve Marriott - Lend us a Quid
TTITLE6=Charlie Barnett - Caravan
TTITLE7=Lighnin' Hopkins - Glory By
TTITLE8=Hot Fussion Blues - My Underclothes Arent Red
TTITLE9=Eric Clapton - I Wish You Would
EXTD=
EXTT0=
EXTT1=
EXTT2=
EXTT3=
EXTT4=
EXTT5=
EXTT6=
EXTT7=
EXTT8=
EXTT9=
PLAYORDER=
